<?xml version="1.0" encoding="UTF-8" standalone="no"?>
<!-- Created with Inkscape (http://www.inkscape.org/) -->

<svg
   version="1.1"
   id="svg1"
   width="878.46088"
   height="183.68517"
   viewBox="0 0 878.46088 183.68517"
   xmlns="http://www.w3.org/2000/svg"
   xmlns:svg="http://www.w3.org/2000/svg">
  <defs
     id="defs1" />
  <g
     id="g1"
     transform="translate(-178.47624,-207.88917)">
    <g
       id="g7"
       style="fill:#ff6400;fill-opacity:1;stroke-width:1.2088"
       transform="matrix(0.82726517,0,0,0.82726517,-284.08758,65.372184)">
      <path
         style="fill:#ff6400;fill-opacity:1;stroke:none;stroke-width:1.2088px;stroke-linecap:butt;stroke-linejoin:miter;stroke-opacity:1"
         d="m 670.01636,311.92365 c -1.37216,3.34968 -4.19719,9.16117 -7.10296,13.64089 -2.90578,4.47972 -5.89218,7.62755 -8.79795,10.08938 -2.90577,2.46183 -5.73075,4.23753 -9.36298,5.69041 -3.63222,1.45288 -8.07146,2.58287 -12.30904,3.10752 -4.23759,0.52465 -8.27327,0.44393 -11.42118,0.12107 -3.14791,-0.32287 -5.40789,-0.88786 -6.78005,-1.41252 -1.37217,-0.52465 -1.85645,-1.00893 -1.73537,-0.44391 0.12108,0.56502 0.8475,2.17929 2.21968,4.76221 1.37218,2.58292 3.39002,6.13432 5.69043,9.88761 2.3004,3.7533 4.88323,7.70826 7.10292,10.61402 2.21968,2.90577 4.07609,4.76218 7.26439,7.1433 3.18829,2.38113 7.70825,5.28682 12.55121,8.07152 4.84296,2.78469 10.00862,5.44824 14.32692,7.34506 4.31829,1.89681 7.78897,3.0268 9.80686,3.51109 2.01788,0.48429 2.58288,0.32286 5.16581,-0.6861 2.58293,-1.00895 7.1836,-2.86536 12.18799,-5.48864 5.00439,-2.62327 10.4122,-6.01324 14.64977,-9.48403 4.23758,-3.47079 7.30469,-7.02218 10.45262,-11.17906 3.14792,-4.15687 6.37646,-8.91897 8.67685,-12.55118 2.3004,-3.6322 3.67253,-6.13432 4.80255,-8.63651 1.13002,-2.5022 2.01787,-5.00432 2.30037,-6.2554 0.2825,-1.25109 -0.0403,-1.25109 -0.64572,-0.8475 -0.60538,0.40358 -1.49323,1.21071 -3.18827,1.8968 -1.69504,0.68608 -4.19716,1.25107 -6.90114,1.57394 -2.70399,0.32286 -5.60968,0.40357 -8.55581,0.20178 -2.94614,-0.20179 -5.93254,-0.68608 -8.5558,-1.25109 -2.62326,-0.56501 -4.88324,-1.21072 -7.18365,-2.30039 -2.3004,-1.08967 -4.6411,-2.62323 -6.4572,-4.03575 -1.8161,-1.41253 -3.10752,-2.70395 -4.31826,-4.07612 -1.21074,-1.37217 -2.34072,-2.82501 -3.55146,-4.52005 -1.21074,-1.69504 -2.50216,-3.63216 -3.5111,-5.3272 -1.00895,-1.69503 -1.73537,-3.14787 -2.34074,-4.52004 -0.60537,-1.37217 -1.08965,-2.66359 -1.41251,-3.59182 -0.32287,-0.92823 -0.4843,-1.49322 -0.7668,-2.46182 -0.28251,-0.96859 -0.68608,-2.34072 -0.84751,-2.58286 -0.16143,-0.24214 -0.0807,0.64571 -1.45287,3.99539 z"
         id="path1" />
      <path
         style="fill:#ff6400;fill-opacity:1;stroke:none;stroke-width:1.2088px;stroke-linecap:butt;stroke-linejoin:miter;stroke-opacity:1"
         d="m 670.01636,311.92365 c -1.37216,3.34968 -4.19719,9.16117 -7.10296,13.64089 -2.90578,4.47972 -5.89218,7.62755 -8.79795,10.08938 -2.90577,2.46183 -5.73075,4.23753 -9.36298,5.69041 -3.63222,1.45288 -8.07146,2.58287 -12.30904,3.10752 -4.23759,0.52465 -8.27327,0.44393 -11.42118,0.12107 -3.14791,-0.32287 -5.40789,-0.88786 -6.78005,-1.41252 -1.37217,-0.52465 -1.85645,-1.00893 -1.73537,-0.44391 0.12108,0.56502 0.8475,2.17929 2.21968,4.76221 1.37218,2.58292 3.39002,6.13432 5.69043,9.88761 2.3004,3.7533 4.88323,7.70826 7.10292,10.61402 2.21968,2.90577 4.07609,4.76218 7.26439,7.1433 3.18829,2.38113 7.70825,5.28682 12.55121,8.07152 4.84296,2.78469 10.00862,5.44824 14.32692,7.34506 4.31829,1.89681 7.78897,3.0268 9.80686,3.51109 2.01788,0.48429 2.58288,0.32286 5.16581,-0.6861 2.58293,-1.00895 7.1836,-2.86536 12.18799,-5.48864 5.00439,-2.62327 10.4122,-6.01324 14.64977,-9.48403 4.23758,-3.47079 7.30469,-7.02218 10.45262,-11.17906 3.14792,-4.15687 6.37646,-8.91897 8.67685,-12.55118 2.3004,-3.6322 3.67253,-6.13432 4.80255,-8.63651 1.13002,-2.5022 2.01787,-5.00432 2.30037,-6.2554 0.2825,-1.25109 -0.0403,-1.25109 -0.64572,-0.8475 -0.60538,0.40358 -1.49323,1.21071 -3.18827,1.8968 -1.69504,0.68608 -4.19716,1.25107 -6.90114,1.57394 -2.70399,0.32286 -5.60968,0.40357 -8.55581,0.20178 -2.94614,-0.20179 -5.93254,-0.68608 -8.5558,-1.25109 -2.62326,-0.56501 -4.88324,-1.21072 -7.18365,-2.30039 -2.3004,-1.08967 -4.6411,-2.62323 -6.4572,-4.03575 -1.8161,-1.41253 -3.10752,-2.70395 -4.31826,-4.07612 -1.21074,-1.37217 -2.34072,-2.82501 -3.55146,-4.52005 -1.21074,-1.69504 -2.50216,-3.63216 -3.5111,-5.3272 -1.00895,-1.69503 -1.73537,-3.14787 -2.34074,-4.52004 -0.60537,-1.37217 -1.08965,-2.66359 -1.41251,-3.59182 -0.32287,-0.92823 -0.4843,-1.49322 -0.7668,-2.46182 -0.28251,-0.96859 -0.68608,-2.34072 -0.84751,-2.58286 -0.16143,-0.24214 -0.0807,0.64571 -1.45287,3.99539 z"
         id="path2"
         transform="rotate(-88.491068,669.93159,282.60108)" />
      <path
         style="fill:#ff6400;fill-opacity:1;stroke:none;stroke-width:1.2088px;stroke-linecap:butt;stroke-linejoin:miter;stroke-opacity:1"
         d="m 670.01636,311.92365 c -1.37216,3.34968 -4.19719,9.16117 -7.10296,13.64089 -2.90578,4.47972 -5.89218,7.62755 -8.79795,10.08938 -2.90577,2.46183 -5.73075,4.23753 -9.36298,5.69041 -3.63222,1.45288 -8.07146,2.58287 -12.30904,3.10752 -4.23759,0.52465 -8.27327,0.44393 -11.42118,0.12107 -3.14791,-0.32287 -5.40789,-0.88786 -6.78005,-1.41252 -1.37217,-0.52465 -1.85645,-1.00893 -1.73537,-0.44391 0.12108,0.56502 0.8475,2.17929 2.21968,4.76221 1.37218,2.58292 3.39002,6.13432 5.69043,9.88761 2.3004,3.7533 4.88323,7.70826 7.10292,10.61402 2.21968,2.90577 4.07609,4.76218 7.26439,7.1433 3.18829,2.38113 7.70825,5.28682 12.55121,8.07152 4.84296,2.78469 10.00862,5.44824 14.32692,7.34506 4.31829,1.89681 7.78897,3.0268 9.80686,3.51109 2.01788,0.48429 2.58288,0.32286 5.16581,-0.6861 2.58293,-1.00895 7.1836,-2.86536 12.18799,-5.48864 5.00439,-2.62327 10.4122,-6.01324 14.64977,-9.48403 4.23758,-3.47079 7.30469,-7.02218 10.45262,-11.17906 3.14792,-4.15687 6.37646,-8.91897 8.67685,-12.55118 2.3004,-3.6322 3.67253,-6.13432 4.80255,-8.63651 1.13002,-2.5022 2.01787,-5.00432 2.30037,-6.2554 0.2825,-1.25109 -0.0403,-1.25109 -0.64572,-0.8475 -0.60538,0.40358 -1.49323,1.21071 -3.18827,1.8968 -1.69504,0.68608 -4.19716,1.25107 -6.90114,1.57394 -2.70399,0.32286 -5.60968,0.40357 -8.55581,0.20178 -2.94614,-0.20179 -5.93254,-0.68608 -8.5558,-1.25109 -2.62326,-0.56501 -4.88324,-1.21072 -7.18365,-2.30039 -2.3004,-1.08967 -4.6411,-2.62323 -6.4572,-4.03575 -1.8161,-1.41253 -3.10752,-2.70395 -4.31826,-4.07612 -1.21074,-1.37217 -2.34072,-2.82501 -3.55146,-4.52005 -1.21074,-1.69504 -2.50216,-3.63216 -3.5111,-5.3272 -1.00895,-1.69503 -1.73537,-3.14787 -2.34074,-4.52004 -0.60537,-1.37217 -1.08965,-2.66359 -1.41251,-3.59182 -0.32287,-0.92823 -0.4843,-1.49322 -0.7668,-2.46182 -0.28251,-0.96859 -0.68608,-2.34072 -0.84751,-2.58286 -0.16143,-0.24214 -0.0807,0.64571 -1.45287,3.99539 z"
         id="path3"
         transform="rotate(-178.33142,669.47492,283.32635)" />
      <path
         style="fill:#ff6400;fill-opacity:1;stroke:none;stroke-width:1.2088px;stroke-linecap:butt;stroke-linejoin:miter;stroke-opacity:1"
         d="m 670.01636,311.92365 c -1.37216,3.34968 -4.19719,9.16117 -7.10296,13.64089 -2.90578,4.47972 -5.89218,7.62755 -8.79795,10.08938 -2.90577,2.46183 -5.73075,4.23753 -9.36298,5.69041 -3.63222,1.45288 -8.07146,2.58287 -12.30904,3.10752 -4.23759,0.52465 -8.27327,0.44393 -11.42118,0.12107 -3.14791,-0.32287 -5.40789,-0.88786 -6.78005,-1.41252 -1.37217,-0.52465 -1.85645,-1.00893 -1.73537,-0.44391 0.12108,0.56502 0.8475,2.17929 2.21968,4.76221 1.37218,2.58292 3.39002,6.13432 5.69043,9.88761 2.3004,3.7533 4.88323,7.70826 7.10292,10.61402 2.21968,2.90577 4.07609,4.76218 7.26439,7.1433 3.18829,2.38113 7.70825,5.28682 12.55121,8.07152 4.84296,2.78469 10.00862,5.44824 14.32692,7.34506 4.31829,1.89681 7.78897,3.0268 9.80686,3.51109 2.01788,0.48429 2.58288,0.32286 5.16581,-0.6861 2.58293,-1.00895 7.1836,-2.86536 12.18799,-5.48864 5.00439,-2.62327 10.4122,-6.01324 14.64977,-9.48403 4.23758,-3.47079 7.30469,-7.02218 10.45262,-11.17906 3.14792,-4.15687 6.37646,-8.91897 8.67685,-12.55118 2.3004,-3.6322 3.67253,-6.13432 4.80255,-8.63651 1.13002,-2.5022 2.01787,-5.00432 2.30037,-6.2554 0.2825,-1.25109 -0.0403,-1.25109 -0.64572,-0.8475 -0.60538,0.40358 -1.49323,1.21071 -3.18827,1.8968 -1.69504,0.68608 -4.19716,1.25107 -6.90114,1.57394 -2.70399,0.32286 -5.60968,0.40357 -8.55581,0.20178 -2.94614,-0.20179 -5.93254,-0.68608 -8.5558,-1.25109 -2.62326,-0.56501 -4.88324,-1.21072 -7.18365,-2.30039 -2.3004,-1.08967 -4.6411,-2.62323 -6.4572,-4.03575 -1.8161,-1.41253 -3.10752,-2.70395 -4.31826,-4.07612 -1.21074,-1.37217 -2.34072,-2.82501 -3.55146,-4.52005 -1.21074,-1.69504 -2.50216,-3.63216 -3.5111,-5.3272 -1.00895,-1.69503 -1.73537,-3.14787 -2.34074,-4.52004 -0.60537,-1.37217 -1.08965,-2.66359 -1.41251,-3.59182 -0.32287,-0.92823 -0.4843,-1.49322 -0.7668,-2.46182 -0.28251,-0.96859 -0.68608,-2.34072 -0.84751,-2.58286 -0.16143,-0.24214 -0.0807,0.64571 -1.45287,3.99539 z"
         id="path5"
         transform="rotate(91.197895,669.73098,283.78094)" />
    </g>
    <text
       xml:space="preserve"
       style="font-style:normal;font-variant:normal;font-weight:normal;font-stretch:normal;font-size:138.195px;line-height:1.25;font-family:'Blippo Blk BT';-inkscape-font-specification:'Blippo Blk BT';fill:#ff6400;fill-opacity:1;stroke-width:1"
       x="392.27856"
       y="346.50662"
       id="text7"><tspan
         id="tspan7"
         x="392.27856"
         y="346.50662"
         style="font-size:138.195px;fill:#ff6400;fill-opacity:1;stroke-width:1">K-Connect</tspan></text>
  </g>
</svg>
