<?xml version="1.0" encoding="UTF-8" standalone="no"?>
<svg
   width="3.5in"
   height="2in"
   viewBox="0 0 88.9 50.8"
   version="1.1"
   id="svg8"
   inkscape:version="1.3.2 (091e20e, 2023-11-25, custom)"
   sodipodi:docname="key-logo-1.svg"
   xml:space="preserve"
   xmlns:inkscape="http://www.inkscape.org/namespaces/inkscape"
   xmlns:sodipodi="http://sodipodi.sourceforge.net/DTD/sodipodi-0.dtd"
   xmlns:xlink="http://www.w3.org/1999/xlink"
   xmlns="http://www.w3.org/2000/svg"
   xmlns:svg="http://www.w3.org/2000/svg"
   xmlns:rdf="http://www.w3.org/1999/02/22-rdf-syntax-ns#"
   xmlns:cc="http://creativecommons.org/ns#"
   xmlns:dc="http://purl.org/dc/elements/1.1/"><defs
     id="defs2"><inkscape:path-effect
       effect="bspline"
       id="path-effect42"
       is_visible="true"
       lpeversion="1.3"
       weight="33.333333"
       steps="2"
       helper_size="0"
       apply_no_weight="true"
       apply_with_weight="true"
       only_selected="false"
       uniform="false" /><inkscape:path-effect
       effect="bspline"
       id="path-effect41"
       is_visible="true"
       lpeversion="1.3"
       weight="33.333333"
       steps="2"
       helper_size="0"
       apply_no_weight="true"
       apply_with_weight="true"
       only_selected="false"
       uniform="false" /><inkscape:path-effect
       effect="bspline"
       id="path-effect40"
       is_visible="true"
       lpeversion="1.3"
       weight="33.333333"
       steps="2"
       helper_size="0"
       apply_no_weight="true"
       apply_with_weight="true"
       only_selected="false"
       uniform="false" /><inkscape:path-effect
       effect="bspline"
       id="path-effect38"
       is_visible="true"
       lpeversion="1.3"
       weight="33.333333"
       steps="2"
       helper_size="0"
       apply_no_weight="true"
       apply_with_weight="true"
       only_selected="false"
       uniform="false" /><inkscape:path-effect
       effect="bspline"
       id="path-effect37"
       is_visible="true"
       lpeversion="1.3"
       weight="33.333333"
       steps="2"
       helper_size="0"
       apply_no_weight="true"
       apply_with_weight="true"
       only_selected="false"
       uniform="false" /><inkscape:path-effect
       effect="bspline"
       id="path-effect33"
       is_visible="true"
       lpeversion="1.3"
       weight="33.333333"
       steps="2"
       helper_size="0"
       apply_no_weight="true"
       apply_with_weight="true"
       only_selected="false"
       uniform="false" /><inkscape:path-effect
       effect="bspline"
       id="path-effect32"
       is_visible="true"
       lpeversion="1.3"
       weight="33.333333"
       steps="2"
       helper_size="0"
       apply_no_weight="true"
       apply_with_weight="true"
       only_selected="false"
       uniform="false" /><inkscape:path-effect
       effect="bspline"
       id="path-effect31"
       is_visible="true"
       lpeversion="1.3"
       weight="33.333333"
       steps="2"
       helper_size="0"
       apply_no_weight="true"
       apply_with_weight="true"
       only_selected="false"
       uniform="false" /><inkscape:path-effect
       effect="bspline"
       id="path-effect30"
       is_visible="true"
       lpeversion="1.3"
       weight="33.333333"
       steps="2"
       helper_size="0"
       apply_no_weight="true"
       apply_with_weight="true"
       only_selected="false"
       uniform="false" /><inkscape:path-effect
       effect="bspline"
       id="path-effect29"
       is_visible="true"
       lpeversion="1.3"
       weight="33.333333"
       steps="2"
       helper_size="0"
       apply_no_weight="true"
       apply_with_weight="true"
       only_selected="false"
       uniform="false" /><inkscape:path-effect
       effect="bspline"
       id="path-effect25"
       is_visible="true"
       lpeversion="1.3"
       weight="33.333333"
       steps="2"
       helper_size="0"
       apply_no_weight="true"
       apply_with_weight="true"
       only_selected="false"
       uniform="false" /><inkscape:path-effect
       effect="bspline"
       id="path-effect22"
       is_visible="true"
       lpeversion="1.3"
       weight="33.333333"
       steps="2"
       helper_size="0"
       apply_no_weight="true"
       apply_with_weight="true"
       only_selected="false"
       uniform="false" /><inkscape:path-effect
       effect="bspline"
       id="path-effect20"
       is_visible="true"
       lpeversion="1.3"
       weight="33.333333"
       steps="2"
       helper_size="0"
       apply_no_weight="true"
       apply_with_weight="true"
       only_selected="false"
       uniform="false" /><inkscape:path-effect
       effect="bspline"
       id="path-effect18"
       is_visible="true"
       lpeversion="1.3"
       weight="33.333333"
       steps="2"
       helper_size="0"
       apply_no_weight="true"
       apply_with_weight="true"
       only_selected="false"
       uniform="false" /><inkscape:path-effect
       effect="bspline"
       id="path-effect16"
       is_visible="true"
       lpeversion="1.3"
       weight="33.333333"
       steps="2"
       helper_size="0"
       apply_no_weight="true"
       apply_with_weight="true"
       only_selected="false"
       uniform="false" /><inkscape:path-effect
       effect="bspline"
       id="path-effect14"
       is_visible="true"
       lpeversion="1.3"
       weight="33.333333"
       steps="2"
       helper_size="0"
       apply_no_weight="true"
       apply_with_weight="true"
       only_selected="false"
       uniform="false" /><inkscape:path-effect
       effect="bspline"
       id="path-effect12"
       is_visible="true"
       lpeversion="1.3"
       weight="33.333333"
       steps="2"
       helper_size="0"
       apply_no_weight="true"
       apply_with_weight="true"
       only_selected="false"
       uniform="false" /><inkscape:path-effect
       effect="bspline"
       id="path-effect10"
       is_visible="true"
       lpeversion="1.3"
       weight="33.333333"
       steps="2"
       helper_size="0"
       apply_no_weight="true"
       apply_with_weight="true"
       only_selected="false"
       uniform="false" /><inkscape:path-effect
       effect="bspline"
       id="path-effect8"
       is_visible="true"
       lpeversion="1.3"
       weight="33.333333"
       steps="2"
       helper_size="0"
       apply_no_weight="true"
       apply_with_weight="true"
       only_selected="false"
       uniform="false" /><inkscape:path-effect
       effect="bspline"
       id="path-effect6"
       is_visible="true"
       lpeversion="1.3"
       weight="33.333333"
       steps="2"
       helper_size="0"
       apply_no_weight="true"
       apply_with_weight="true"
       only_selected="false"
       uniform="false" /><inkscape:path-effect
       effect="bspline"
       id="path-effect4"
       is_visible="true"
       lpeversion="1.3"
       weight="33.333333"
       steps="2"
       helper_size="0"
       apply_no_weight="true"
       apply_with_weight="true"
       only_selected="false"
       uniform="false" /><inkscape:path-effect
       effect="bspline"
       id="path-effect2"
       is_visible="true"
       lpeversion="1.3"
       weight="33.333333"
       steps="2"
       helper_size="0"
       apply_no_weight="true"
       apply_with_weight="true"
       only_selected="false"
       uniform="false" /><inkscape:path-effect
       effect="bspline"
       id="path-effect1"
       is_visible="true"
       lpeversion="1.3"
       weight="33.333333"
       steps="2"
       helper_size="0"
       apply_no_weight="true"
       apply_with_weight="true"
       only_selected="false"
       uniform="false" /><linearGradient
       inkscape:collect="always"
       id="linearGradient1231"><stop
         style="stop-color:#000000;stop-opacity:1;"
         offset="0"
         id="stop1225" /><stop
         style="stop-color:#d45500;stop-opacity:1"
         offset="0.54259616"
         id="stop1227" /><stop
         style="stop-color:#fba912;stop-opacity:1"
         offset="1"
         id="stop1229" /></linearGradient><inkscape:path-effect
       effect="bspline"
       id="path-effect933"
       is_visible="true"
       lpeversion="1"
       weight="33.333333"
       steps="2"
       helper_size="0"
       apply_no_weight="true"
       apply_with_weight="true"
       only_selected="false"
       uniform="false" /><inkscape:path-effect
       effect="bspline"
       id="path-effect929"
       is_visible="true"
       lpeversion="1"
       weight="33.333333"
       steps="2"
       helper_size="0"
       apply_no_weight="true"
       apply_with_weight="true"
       only_selected="false"
       uniform="false" /><inkscape:path-effect
       effect="bspline"
       id="path-effect922"
       is_visible="true"
       lpeversion="1"
       weight="33.333333"
       steps="2"
       helper_size="0"
       apply_no_weight="true"
       apply_with_weight="true"
       only_selected="false"
       uniform="false" /><inkscape:path-effect
       effect="bspline"
       id="path-effect918"
       is_visible="true"
       lpeversion="1"
       weight="33.333333"
       steps="2"
       helper_size="0"
       apply_no_weight="true"
       apply_with_weight="true"
       only_selected="false"
       uniform="false" /><inkscape:path-effect
       effect="bspline"
       id="path-effect900"
       is_visible="true"
       lpeversion="1"
       weight="33.333333"
       steps="2"
       helper_size="0"
       apply_no_weight="true"
       apply_with_weight="true"
       only_selected="false"
       uniform="false" /><inkscape:path-effect
       effect="bspline"
       id="path-effect878"
       is_visible="true"
       lpeversion="1"
       weight="33.333333"
       steps="2"
       helper_size="0"
       apply_no_weight="true"
       apply_with_weight="true"
       only_selected="false"
       uniform="false" /><inkscape:path-effect
       effect="bspline"
       id="path-effect849"
       is_visible="true"
       lpeversion="1"
       weight="33.333333"
       steps="2"
       helper_size="0"
       apply_no_weight="true"
       apply_with_weight="true"
       only_selected="false"
       uniform="false" /><linearGradient
       inkscape:collect="always"
       xlink:href="#linearGradient1231"
       id="linearGradient1223"
       x1="7.9375"
       y1="204.39062"
       x2="34.395832"
       y2="204.39062"
       gradientUnits="userSpaceOnUse" /></defs><sodipodi:namedview
     id="base"
     pagecolor="#ffffff"
     bordercolor="#666666"
     borderopacity="1.0"
     inkscape:pageopacity="0.0"
     inkscape:pageshadow="2"
     inkscape:zoom="1.3054192"
     inkscape:cx="140.95089"
     inkscape:cy="126.01316"
     inkscape:document-units="mm"
     inkscape:current-layer="layer1"
     inkscape:document-rotation="0"
     showgrid="false"
     inkscape:snap-others="false"
     inkscape:snap-global="true"
     inkscape:snap-nodes="true"
     inkscape:window-width="1366"
     inkscape:window-height="705"
     inkscape:window-x="-8"
     inkscape:window-y="-8"
     inkscape:window-maximized="1"
     inkscape:showpageshadow="2"
     inkscape:pagecheckerboard="0"
     inkscape:deskcolor="#d1d1d1" /><metadata
     id="metadata5"><rdf:RDF><cc:Work
         rdf:about=""><dc:format>image/svg+xml</dc:format><dc:type
           rdf:resource="http://purl.org/dc/dcmitype/StillImage" /></cc:Work></rdf:RDF></metadata><g
     inkscape:groupmode="layer"
     id="layer2"
     inkscape:label="Layer 2"
     style="display:inline"><g
       inkscape:label="Layer 1"
       inkscape:groupmode="layer"
       id="layer1"
       style="display:inline"><g
         id="g43"
         transform="translate(-262.55661,-118.09315)"><path
           style="fill:none;stroke:#000000;stroke-width:0.79375;stroke-linecap:butt;stroke-linejoin:miter;stroke-dasharray:none;stroke-opacity:1"
           d="m 38.103979,16.214459 c 0,81.612777 0,163.225551 0,244.838331"
           id="path1"
           inkscape:path-effect="#path-effect2"
           inkscape:original-d="m 38.103979,16.214459 c 0,81.612777 0,163.225551 0,244.838331"
           transform="translate(-27.24908,-4.8643378)" /><path
           style="fill:none;stroke:#000000;stroke-width:0.79375;stroke-linecap:butt;stroke-linejoin:miter;stroke-dasharray:none;stroke-opacity:1"
           d="m 38.103979,16.214459 c 0,81.612777 0,163.225551 0,244.838331"
           id="path2"
           inkscape:path-effect="#path-effect4"
           inkscape:original-d="m 38.103979,16.214459 c 0,81.612777 0,163.225551 0,244.838331"
           transform="translate(135.39074,-9.7286757)" /><path
           style="fill:none;stroke:#000000;stroke-width:0.79375;stroke-linecap:butt;stroke-linejoin:miter;stroke-dasharray:none;stroke-opacity:1"
           d="m 38.103979,16.214459 c 0,81.612777 0,163.225551 0,244.838331"
           id="path4"
           inkscape:path-effect="#path-effect6"
           inkscape:original-d="m 38.103979,16.214459 c 0,81.612777 0,163.225551 0,244.838331"
           transform="translate(20.583575,-3.2428919)" /><path
           style="fill:none;stroke:#000000;stroke-width:0.79375;stroke-linecap:butt;stroke-linejoin:miter;stroke-dasharray:none;stroke-opacity:1"
           d="m 38.103979,16.214459 c 0,81.612777 0,163.225551 0,244.838331"
           id="path6"
           inkscape:path-effect="#path-effect8"
           inkscape:original-d="m 38.103979,16.214459 c 0,81.612777 0,163.225551 0,244.838331"
           transform="matrix(0,1,1,0,-35.356304,96.476033)" /><path
           style="fill:none;stroke:#000000;stroke-width:0.79375;stroke-linecap:butt;stroke-linejoin:miter;stroke-dasharray:none;stroke-opacity:1"
           d="m 38.103979,16.214459 c 0,81.612777 0,163.225551 0,244.838331"
           id="path8"
           inkscape:path-effect="#path-effect10"
           inkscape:original-d="m 38.103979,16.214459 c 0,81.612777 0,163.225551 0,244.838331"
           transform="matrix(0,1,1,0,-36.167027,113.50122)" /><path
           style="fill:none;stroke:#000000;stroke-width:0.79375;stroke-linecap:butt;stroke-linejoin:miter;stroke-dasharray:none;stroke-opacity:1"
           d="m 38.103979,16.214459 c 0,81.612777 0,163.225551 0,244.838331"
           id="path10"
           inkscape:path-effect="#path-effect12"
           inkscape:original-d="m 38.103979,16.214459 c 0,81.612777 0,163.225551 0,244.838331"
           transform="matrix(0.83620025,0.54842424,0.54842424,-0.83620025,-6.2367223,201.23303)" /><path
           style="fill:none;stroke:#000000;stroke-width:0.79375;stroke-linecap:butt;stroke-linejoin:miter;stroke-dasharray:none;stroke-opacity:1"
           d="m 38.103979,16.214459 c 0,81.612777 0,163.225551 0,244.838331"
           id="path12"
           inkscape:path-effect="#path-effect14"
           inkscape:original-d="m 38.103979,16.214459 c 0,81.612777 0,163.225551 0,244.838331"
           transform="matrix(-0.85957118,0.51101604,0.51101604,0.85957118,40.864708,5.6714717)" /><path
           style="fill:none;stroke:#000000;stroke-width:0.79375;stroke-linecap:butt;stroke-linejoin:miter;stroke-dasharray:none;stroke-opacity:1"
           d="m 38.103979,16.214459 c 0,81.612777 0,163.225551 0,244.838331"
           id="path14"
           inkscape:path-effect="#path-effect16"
           inkscape:original-d="m 38.103979,16.214459 c 0,81.612777 0,163.225551 0,244.838331"
           transform="translate(38.41948,-4.0536149)" /><path
           style="fill:none;stroke:#000000;stroke-width:0.79375;stroke-linecap:butt;stroke-linejoin:miter;stroke-dasharray:none;stroke-opacity:1"
           d="m 38.103979,16.214459 c 0,81.612777 0,163.225551 0,244.838331"
           id="path16"
           inkscape:path-effect="#path-effect18"
           inkscape:original-d="m 38.103979,16.214459 c 0,81.612777 0,163.225551 0,244.838331"
           transform="matrix(-0.84792146,0.53012188,0.53012188,0.84792146,51.554386,3.3156146)" /><path
           style="fill:none;stroke:#000000;stroke-width:0.79375;stroke-linecap:butt;stroke-linejoin:miter;stroke-dasharray:none;stroke-opacity:1"
           d="m 38.103979,16.214459 c 0,81.612777 0,163.225551 0,244.838331"
           id="path18"
           inkscape:path-effect="#path-effect20"
           inkscape:original-d="m 38.103979,16.214459 c 0,81.612777 0,163.225551 0,244.838331"
           transform="matrix(0.83620025,0.54842424,0.54842424,-0.83620025,5.1133993,210.15098)" /><path
           style="fill:none;stroke:#000000;stroke-width:0.79375;stroke-linecap:butt;stroke-linejoin:miter;stroke-dasharray:none;stroke-opacity:1"
           d="m 38.103979,16.214459 c 0,81.612777 0,163.225551 0,244.838331"
           id="path20"
           inkscape:path-effect="#path-effect22"
           inkscape:original-d="m 38.103979,16.214459 c 0,81.612777 0,163.225551 0,244.838331"
           transform="translate(-14.277512,-4.0536148)" /><circle
           style="fill:none;fill-opacity:0.964706;stroke:#000000;stroke-width:0.79375;stroke-linecap:round;stroke-dasharray:none;stroke-opacity:1;paint-order:stroke markers fill"
           id="path22"
           cx="93.233139"
           cy="138.63362"
           r="91.611694" /><circle
           style="fill:none;fill-opacity:0.964706;stroke:#000000;stroke-width:0.79375;stroke-linecap:round;stroke-dasharray:none;stroke-opacity:1;paint-order:stroke markers fill"
           id="circle22"
           cx="93.233139"
           cy="138.63362"
           r="76.207954" /><path
           style="opacity:1;fill:#000080;stroke:#000000;stroke-width:0.264583px;stroke-linecap:butt;stroke-linejoin:miter;stroke-opacity:1"
           d="m 146.74086,63.641752 -46.21121,71.748978 83.90982,-0.81072 c 0,0 6.78619,51.05485 -42.56295,82.28838 C 110.78951,236.54365 63.796459,232.38572 34.050364,209.97725 10.305022,192.08929 -5.0609656,132.33983 1.6214459,132.95857 l 21.8895201,2.0268 53.102355,-0.81072 -7.296508,9.72868 6.891145,7.2965 0.405363,35.26645 -19.862713,1.21609 1.216083,-37.29326 -40.941509,0.81072 c 0,0 13.910761,44.1046 41.752232,55.53452 21.416957,8.79243 47.454826,10.52139 69.930816,-2.0268 35.35668,-19.73939 39.92215,-53.10235 39.92215,-53.10235 H 98.908202 l 24.657498,39.88139 -10.04761,10.62582 -36.094046,-59.42517 67.695366,-102.961815 -23.51097,6.080421 44.18441,-23.510965 -2.73918,44.815287 -4.55733,-22.115045 z"
           id="path23"
           sodipodi:nodetypes="cccsssccccccccssccccccccccc" /><path
           style="fill:none;stroke:#000000;stroke-width:0.79375;stroke-linecap:butt;stroke-linejoin:miter;stroke-dasharray:none;stroke-opacity:1"
           d="m 38.103979,16.214459 c 0,81.612777 0,163.225551 0,244.838331"
           id="path24"
           inkscape:path-effect="#path-effect25"
           inkscape:original-d="m 38.103979,16.214459 c 0,81.612777 0,163.225551 0,244.838331"
           transform="matrix(0.83620025,0.54842424,0.54842424,-0.83620025,-13.645058,201.23303)" /><path
           style="fill:#000080;stroke:#550000;stroke-width:0.264583px;stroke-linecap:butt;stroke-linejoin:miter;stroke-opacity:1"
           d="m 128.41197,53.887163 -9.17229,14.331693 c 0,0 -25.069031,-14.65274 -61.339643,2.86634 C 28.52722,85.27257 18.917834,119.23968 18.917834,119.23968 l -2.293071,14.90496 41.848542,1.14654 -0.573268,-34.96933 17.771301,-0.57327 1.146535,34.39606 -7.452482,9.74555 -68.7921233,-0.57326 c 0,0 -1.7198617,-51.342162 33.2495283,-76.244609 C 71.658462,40.128738 109.49413,48.154486 109.49413,48.154486 Z"
           id="path25"
           sodipodi:nodetypes="ccsccccccccscc" /><g
           id="g25"
           transform="matrix(0.60869566,0,0,1,-44.689963,-0.61736873)"
           style="stroke-width:1.28174"><rect
             style="opacity:1;fill:#f9f9f9;fill-opacity:0.964706;stroke:#000000;stroke-width:1.01738;stroke-linecap:round;stroke-dasharray:none;stroke-opacity:1;paint-order:stroke markers fill"
             id="rect25"
             width="65.925789"
             height="17.198032"
             x="102.61491"
             y="134.71791" /></g><g
           id="g26"
           transform="matrix(1.019176,0,0,1,-4.8929123,-0.04410102)"
           style="stroke-width:0.990548"><rect
             style="opacity:1;fill:#f9f9f9;fill-opacity:0.964706;stroke:#000000;stroke-width:0.786246;stroke-linecap:round;stroke-dasharray:none;stroke-opacity:1;paint-order:stroke markers fill"
             id="rect26"
             width="65.925789"
             height="17.198032"
             x="102.61491"
             y="134.71791" /><rect
             style="opacity:1;fill:#f9f9f9;fill-opacity:0.964706;stroke:#000000;stroke-width:0.786246;stroke-linecap:round;stroke-dasharray:none;stroke-opacity:1;paint-order:stroke markers fill"
             id="rect27"
             width="65.925789"
             height="17.198032"
             x="102.61491"
             y="134.71791" /><rect
             style="opacity:1;fill:#f9f9f9;fill-opacity:0.964706;stroke:none;stroke-width:0.795427;stroke-linecap:round;stroke-dasharray:none;stroke-opacity:1;paint-order:stroke markers fill"
             id="rect28"
             width="90.203712"
             height="46.938969"
             x="-30.61026"
             y="221.37798"
             transform="matrix(0.59878968,-0.80090631,0.65497121,0.75565383,0,0)"
             ry="1.0121697" /></g></g><path
         style="fill:#000080;stroke:#000000;stroke-width:0.264583px;stroke-linecap:butt;stroke-linejoin:miter;stroke-opacity:1"
         d="m 294.37296,67.550049 c 0.66881,-1.433176 2.77079,-2.961889 4.96834,-3.726246 2.19755,-0.764356 4.49059,-0.764356 6.40149,0.191107 1.91091,0.955463 3.43959,2.866312 3.72622,23.026616 0.28663,20.160304 -0.66879,58.568474 -1.9109,78.155124 -1.2421,19.58666 -2.77079,20.351 -5.44607,19.87326 -2.67528,-0.47774 -6.497,-2.19752 -8.0257,-10.12786 -1.52871,-7.93034 -0.76437,-22.07066 -0.19109,-36.88023 0.57327,-14.80957 0.95544,-30.28749 1.14653,-40.510814 0.19109,-10.223325 0.19109,-15.191547 0.19109,-18.631171 0,-3.439624 0,-5.35048 -0.38219,-6.974752 -0.38219,-1.624272 -1.14653,-2.961858 -0.47772,-4.395034 z"
         id="path29"
         inkscape:path-effect="#path-effect29"
         inkscape:original-d="m 292.93978,67.645589 c 2.10199,-1.528712 4.20397,-3.057427 6.30595,-4.586142 2.29312,0 4.58616,0 6.87922,0 1.52874,1.910932 3.05742,3.821784 4.58616,5.732677 -0.95547,38.409706 -1.9109,76.817876 -2.86634,115.226806 -1.52876,0.76437 -3.05745,1.52872 -4.58616,2.29307 -3.82185,-1.71983 -7.64357,-3.4396 -11.46535,-5.15941 0.76439,-14.14088 1.52871,-28.2812 2.29307,-42.42181 0.38219,-15.47853 0.76435,-30.95645 1.14654,-46.434679 0,-4.96842 0,-9.936642 0,-14.904961 0,-1.910929 0,-3.821785 0,-5.732677 -0.76438,-1.337651 -1.5287,-2.675249 -2.29309,-4.012874 z"
         transform="rotate(-0.65135008,702.38205,-22.250292)" /><path
         style="fill:#000080;stroke:#000000;stroke-width:0.264583px;stroke-linecap:butt;stroke-linejoin:miter;stroke-opacity:1"
         d="m 377.68787,73.951535 c 0.66881,-2.101983 -0.47772,-5.350495 -2.57974,-7.070302 -2.10202,-1.719808 -5.15938,-1.910892 -13.2808,3.439712 -8.12142,5.350604 -21.30631,16.242474 -29.52319,23.790544 -8.21687,7.548071 -11.46532,11.751941 -11.94302,19.395631 -0.4777,7.64368 1.81533,18.72663 7.64364,29.33218 5.82831,10.60556 15.19151,20.73309 23.12177,28.09007 7.93027,7.35698 14.42717,11.94303 19.10889,13.28063 4.68172,1.3376 7.54801,-0.57325 6.68806,-3.15299 -0.85995,-2.57973 -5.446,-5.82818 -10.03219,-10.12775 -4.5862,-4.29956 -9.17224,-9.64995 -13.85398,-15.95597 -4.68173,-6.30602 -9.45887,-13.56726 -12.51631,-19.49107 -3.05744,-5.92381 -4.39503,-10.50986 -4.58611,-15.47823 -0.19108,-4.96838 0.76435,-10.31877 4.10846,-15.28713 3.34411,-4.968366 9.07668,-9.55442 13.9495,-13.280691 4.87282,-3.726271 8.8856,-6.592541 11.75196,-8.694541 2.86636,-2.102 4.58613,-3.439601 6.68813,-4.586145 2.10201,-1.146543 4.58611,-2.101965 5.25493,-4.203948 z"
         id="path30"
         inkscape:path-effect="#path-effect30"
         inkscape:original-d="m 379.50322,75.09807 c -1.14654,-3.248517 -2.29306,-6.497034 -3.43961,-9.745551 -3.0575,-0.191093 -6.11486,-0.38218 -9.17228,-0.573267 -13.18541,10.892303 -26.37031,21.784172 -39.55548,32.676258 -3.24858,4.20405 -6.49702,8.40793 -9.74555,12.61189 2.29312,11.0834 4.58615,22.16635 6.87922,33.24953 9.36355,10.12793 18.72676,20.25545 28.09012,30.38319 6.49716,4.58623 12.99406,9.17228 19.49109,13.75842 2.86642,-1.91093 5.7327,-3.82179 8.59904,-5.73268 -4.58624,-3.24858 -9.17229,-6.49703 -13.75844,-9.74555 -4.58624,-5.35061 -9.17229,-10.701 -13.75842,-16.0515 -4.77734,-7.26153 -9.55447,-14.52278 -14.33171,-21.78417 -1.33765,-4.58623 -2.67523,-9.17228 -4.01285,-13.75842 0.95546,-5.35061 1.91087,-10.701 2.86633,-16.0515 5.73278,-4.58623 11.46535,-9.172282 17.19803,-13.758422 4.01296,-2.866398 8.02573,-5.732679 12.03862,-8.599016 1.71984,-1.337651 3.43961,-2.67525 5.1594,-4.012875 2.48422,-0.955466 4.96832,-1.910892 7.45249,-2.866337 z"
         transform="rotate(-0.65135008,702.38205,-22.250292)" /><g
         id="g34"
         transform="rotate(84.658489,393.06383,60.695263)"><g
           id="g35"
           transform="rotate(-87.341519,396.00024,59.27993)"><path
             style="fill:#000080;stroke:none;stroke-width:0.264583px;stroke-linecap:butt;stroke-linejoin:miter;stroke-opacity:1"
             d="m 292.27099,52.549539 c 1.24207,-3.821784 2.96188,-9.554463 8.40801,-14.809464 5.44614,-5.255002 14.61823,-10.032134 23.12178,-11.943018 8.50355,-1.910884 16.33805,-0.955457 22.73959,0.764372 6.40154,1.719829 11.36976,4.20394 15.28712,8.694603 3.91736,4.490663 6.78365,10.987568 8.31236,15.191548 1.52872,4.203979 1.7198,6.114833 1.24206,7.070279 -0.47773,0.955446 -1.62425,0.955446 -2.96189,1.050994 -1.33764,0.09555 -2.86632,0.286631 -4.58614,-2.579767 -1.71982,-2.866398 -3.63067,-8.790042 -6.21041,-13.185123 -2.57973,-4.395082 -5.82818,-7.261361 -10.0322,-8.885626 -4.20402,-1.624265 -9.36331,-2.006434 -14.52278,-1.719791 -5.15947,0.286642 -10.31876,1.242067 -14.23612,2.866345 -3.91736,1.624278 -6.59256,3.917312 -8.9812,6.21041 -2.38864,2.293098 -4.49057,4.586112 -6.11485,7.356937 -1.62427,2.770825 -2.77078,6.019278 -4.20397,8.407912 -1.43319,2.388634 -3.15296,3.917321 -4.87277,4.299488 -1.71982,0.382168 -3.43959,-0.382175 -3.9173,-1.719816 -0.47771,-1.337641 0.28663,-3.248498 1.52871,-7.070283 z"
             id="path31"
             inkscape:path-effect="#path-effect31"
             inkscape:original-d="m 291.79326,54.460433 c 1.7198,-5.732679 3.43961,-11.465356 5.15941,-17.198033 9.17247,-4.777324 18.34456,-9.554461 27.51685,-14.331692 7.83481,0.955465 15.66931,1.910893 23.50397,2.866339 4.96842,2.48421 9.93664,4.968319 14.90495,7.452479 2.86642,6.497163 5.73271,12.994068 8.59904,19.491102 0.19108,1.910932 0.38217,3.821785 0.57325,5.732677 -1.14655,0 -2.29307,0 -3.43958,0 -1.52877,0.191095 -3.05745,0.38218 -4.58616,0.573267 -1.91093,-5.923883 -3.82177,-11.847531 -5.73267,-17.771297 -3.24858,-2.866396 -6.49703,-5.732677 -9.74556,-8.599017 -5.15951,-0.382185 -10.3188,-0.764355 -15.47823,-1.146535 -5.15951,0.955466 -10.3188,1.910893 -15.47823,2.86634 -2.67528,2.293115 -5.35049,4.586142 -8.02574,6.879212 -2.10204,2.293117 -4.20396,4.586142 -6.30595,6.879211 -1.14654,3.248583 -2.29306,6.497034 -3.43961,9.745551 -1.71984,1.528744 -3.43961,3.05743 -5.1594,4.586142 -1.71984,-0.76437 -3.43961,-1.528712 -5.1594,-2.293069 0.76436,-1.910932 1.52871,-3.821785 2.29306,-5.732677 z"
             transform="rotate(8.5931734,371.43163,72.440302)" /><path
             style="fill:#d45500;stroke:none;stroke-width:0.264583px;stroke-linecap:butt;stroke-linejoin:miter;stroke-opacity:1"
             d="m 313.00417,59.046569 c 1.91089,-2.484165 5.54159,-5.541588 10.60551,-7.643579 5.06393,-2.101991 11.56083,-3.248503 16.24255,-3.630677 4.68173,-0.382174 7.54801,-4e-6 10.50992,1.815371 2.96191,1.815376 6.01928,5.063829 7.93018,8.025741 1.9109,2.961912 2.67524,5.637111 1.91086,7.070283 -0.76438,1.433171 -3.05742,1.624258 -4.77723,0.09551 -1.71981,-1.528746 -2.86632,-4.777199 -5.06388,-6.974737 -2.19756,-2.197537 -5.44601,-3.344048 -8.31238,-3.726225 -2.86636,-0.382176 -5.35048,-3e-6 -8.21684,0.573272 -2.86637,0.573275 -6.11481,1.337613 -8.79008,2.675255 -2.67528,1.337641 -4.77723,3.248504 -6.78368,5.159415 -2.00646,1.910911 -3.91731,3.821759 -5.15939,4.299475 -1.24209,0.477715 -1.81534,-0.477721 -2.00643,-1.910904 -0.19109,-1.433184 -10e-6,-3.344036 1.91089,-5.828202 z"
             id="path32"
             inkscape:path-effect="#path-effect32"
             inkscape:original-d="m 311.28435,59.619842 c 3.63072,-3.057429 7.26141,-6.114856 10.8921,-9.172284 6.49716,-1.146558 12.99406,-2.293072 19.49109,-3.439607 2.86642,0.382186 5.7327,0.764358 8.59904,1.146535 3.05747,3.248583 6.11484,6.497034 9.17228,9.745551 0.76436,2.675303 1.52871,5.3505 2.29307,8.025749 -2.29312,0.191093 -4.58616,0.382178 -6.87922,0.573268 -1.14655,-3.248583 -2.29307,-6.497034 -3.43961,-9.745551 -3.24858,-1.146559 -6.49703,-2.29307 -9.74556,-3.439607 -2.4842,0.382188 -4.96832,0.764357 -7.45247,1.146537 -3.24858,0.764371 -6.49702,1.528712 -9.74555,2.29307 -2.10201,1.910932 -4.20397,3.821784 -6.30595,5.732676 -1.91093,1.910932 -3.82177,3.821785 -5.73267,5.732677 -0.57328,-0.955463 -1.14655,-1.910892 -1.71979,-2.866337 0.19108,-1.910932 0.38216,-3.821784 0.57324,-5.732677 z"
             transform="rotate(8.5931734,373.01913,51.310392)" /><path
             style="fill:#ff2a2a;stroke:none;stroke-width:0.264583px;stroke-linecap:butt;stroke-linejoin:miter;stroke-opacity:1"
             d="m 324.66061,69.269849 c 1.33762,-1.624261 3.4396,-3.344064 6.30597,-4.299512 2.86638,-0.955448 6.497,-1.146533 9.45891,-0.764344 2.96192,0.382189 5.25493,1.337613 6.78365,2.675256 1.52873,1.337643 2.29308,3.057413 2.38861,4.39505 0.0955,1.337636 -0.47772,2.293057 -1.14654,2.293049 -0.66881,-7e-6 -1.43316,-0.955441 -2.19752,-1.9109 -0.76437,-0.95546 -1.5287,-1.910876 -2.86635,-2.770786 -1.33764,-0.85991 -3.24851,-1.624258 -5.3505,-1.81534 -2.102,-0.191082 -4.39504,0.191091 -5.92376,0.95546 -1.52871,0.764369 -2.29305,1.910877 -3.24851,3.057427 -0.95547,1.14655 -2.10198,2.293065 -3.24853,2.770781 -1.14655,0.477716 -2.29307,0.286629 -2.57969,-0.573286 -0.28662,-0.859916 0.28663,-2.388594 1.62426,-4.012855 z"
             id="path33"
             inkscape:path-effect="#path-effect33"
             inkscape:original-d="m 323.89625,69.365391 c 2.10198,-1.719802 4.20396,-3.439605 6.30594,-5.159409 3.63077,-0.191093 7.26139,-0.382178 10.8921,-0.573268 2.29312,0.955466 4.58613,1.910892 6.8792,2.86634 0.76438,1.719837 1.52873,3.439607 2.29309,5.159409 -0.5733,0.955466 -1.14655,1.910892 -1.71982,2.866337 -0.76436,-0.955463 -1.52871,-1.910892 -2.29306,-2.866337 -0.76439,-0.955466 -1.52871,-1.910892 -2.29307,-2.866339 -1.91093,-0.764371 -3.8218,-1.528713 -5.73267,-2.29307 -2.29312,0.382185 -4.58616,0.764357 -6.87922,1.146535 -0.76438,1.146558 -1.52871,2.293072 -2.29307,3.439607 -1.14657,1.146558 -2.29309,2.293069 -3.43961,3.439604 -1.14657,-0.191092 -2.29309,-0.382177 -3.43961,-0.573267 0.57328,-1.528744 1.14652,-3.057427 1.7198,-4.586142 z"
             transform="rotate(8.5931734,373.01913,51.310392)" /></g></g><circle
         style="opacity:1;fill:none;fill-opacity:0.964706;stroke:#000000;stroke-width:0.79375;stroke-linecap:round;stroke-dasharray:none;stroke-opacity:1;paint-order:normal"
         id="path35"
         cx="331.34869"
         cy="72.231735"
         r="48.727753" /><circle
         style="opacity:1;fill:none;fill-opacity:0.964706;stroke:#000000;stroke-width:0.793753;stroke-linecap:round;stroke-dasharray:none;stroke-opacity:1;paint-order:normal"
         id="circle35"
         cx="331.34869"
         cy="72.231735"
         r="38.408936" /><path
         style="fill:none;stroke:#000000;stroke-width:0.79375;stroke-linecap:butt;stroke-linejoin:miter;stroke-dasharray:none;stroke-opacity:1"
         d="m 38.103979,16.214459 c 0,81.612777 0,163.225551 0,244.838331"
         id="path36"
         inkscape:path-effect="#path-effect37"
         inkscape:original-d="m 38.103979,16.214459 c 0,81.612777 0,163.225551 0,244.838331"
         transform="matrix(0,1,1,0,224.09651,23.498189)" /><path
         id="rect37"
         style="opacity:1;fill:#000080;fill-opacity:0.964706;stroke-width:0.793752;stroke-linecap:round"
         d="m 28.919931,7.8625351 c -0.145116,0.145116 -0.09025,0.51087 -0.09025,0.51087 V 41.375719 c 0,0 -0.107662,0.894807 0.328201,1.330666 0.435859,0.435862 1.711332,0.328201 1.711332,0.328201 h 4.813604 c 0,0 -0.388983,-7.730926 1.312798,-7.730926 1.701776,0 8.897868,7.730926 8.897868,7.730926 h 8.606125 5.582481 c 0,0 -14.390268,-10.455547 -14.308687,-17.758346 C 45.854983,17.97344 60.08209,7.7593931 60.08209,7.7593931 H 45.174345 c 0.02942,0.01404 0.06069,0.02778 0.08967,0.04183 0.581263,0.281775 1.076618,0.562691 1.528172,0.911747 0.451555,0.349051 0.859271,0.766401 1.139223,1.0876761 0.27995,0.3212808 0.431899,0.5465048 0.463897,0.7531768 0.03199,0.206672 -0.05595,0.394808 -0.169361,0.53963 -0.11343,0.144821 -0.252337,0.246147 -0.398938,0.287434 -0.146601,0.04126 -0.30109,0.0223 -0.429708,-0.0051 -0.12862,-0.02727 -0.231134,-0.0628 -0.401044,-0.236683 -0.16991,-0.173889 -0.407134,-0.485948 -0.670591,-0.746867 C 46.0622,10.131319 45.772329,9.9215812 45.465202,9.7203261 45.158065,9.5190741 44.833809,9.3262171 44.44063,9.1325681 c -0.393178,-0.19365 -0.855248,-0.388048 -1.283599,-0.513333 -0.428352,-0.12529 -0.822969,-0.181334 -1.286492,-0.23826 -0.463522,-0.05692 -0.995836,-0.114628 -1.554995,-0.07811 -0.559154,0.03654 -1.145131,0.167173 -1.671497,0.341611 -0.526361,0.174435 -0.993083,0.392603 -1.373538,0.585917 -0.380451,0.193314 -0.674643,0.361799 -0.969339,0.5732911 -0.294706,0.2114948 -0.589977,0.4659078 -0.781047,0.6356198 -0.191065,0.169712 -0.278065,0.254592 -0.390786,0.339244 -0.112725,0.08466 -0.251145,0.169168 -0.398149,0.244836 -0.146999,0.07566 -0.302386,0.142609 -0.473889,0.106242 -0.171497,-0.03637 -0.359203,-0.175995 -0.452061,-0.323201 -0.09285,-0.147202 -0.09093,-0.301823 -0.08915,-0.456534 0.002,-0.154703 0.0036,-0.309551 0.264819,-0.5988019 0.261221,-0.289246 0.781791,-0.713013 1.301745,-1.076634 0.493581,-0.345178 0.989734,-0.635498 1.585498,-0.915166 l -7.421137,-5e-6 c 0,0 -0.381972,-0.04199 -0.527083,0.103142 z m 12.3234,2.2565619 c 0.559301,-0.0017 1.051195,0.07206 1.516075,0.197764 0.531287,0.143664 1.027329,0.355503 1.479785,0.627203 0.452443,0.271699 0.861064,0.603212 1.184192,0.907801 0.323132,0.304589 0.560558,0.582245 0.66981,0.798408 0.109248,0.216158 0.09048,0.370745 0.02024,0.498871 -0.07024,0.128121 -0.191804,0.229898 -0.330299,0.314255 -0.138509,0.08436 -0.294163,0.151408 -0.44917,0.175408 -0.154999,0.02397 -0.309384,0.0051 -0.488085,-0.152001 -0.178697,-0.156791 -0.381707,-0.451392 -0.713725,-0.730291 -0.332023,-0.278901 -0.793173,-0.542079 -1.255204,-0.727926 -0.462037,-0.185846 -0.924845,-0.294236 -1.328303,-0.341873 -0.403458,-0.04764 -0.747531,-0.03431 -1.152378,0.03842 -0.404836,0.07269 -0.870445,0.20478 -1.250197,0.337932 -0.379758,0.133144 -0.673432,0.267269 -0.924373,0.410504 -0.250936,0.143239 -0.458982,0.295493 -0.632465,0.431026 -0.173488,0.135531 -0.31264,0.254391 -0.48572,0.355541 -0.173085,0.101155 -0.380282,0.184629 -0.577764,0.165154 -0.197482,-0.01952 -0.385178,-0.141978 -0.477832,-0.306373 -0.09265,-0.16439 -0.09033,-0.370774 0.06785,-0.669801 0.15818,-0.299032 0.472214,-0.69061 0.949089,-1.04613 0.476881,-0.355525 1.116755,-0.674841 1.815611,-0.898864 0.698846,-0.224018 1.456621,-0.352737 2.118821,-0.379476 0.08277,-0.0034 0.164143,-0.0053 0.244041,-0.0055 z m -0.187237,3.281191 c 0.464219,-0.003 0.875314,0.121659 1.217328,0.280333 0.342002,0.158678 0.614918,0.350995 0.80182,0.542262 0.186902,0.191271 0.287821,0.381608 0.337403,0.554095 0.04957,0.172496 0.04773,0.327096 -0.0313,0.472312 -0.07904,0.14522 -0.23517,0.281104 -0.382373,0.373957 -0.147208,0.09286 -0.285521,0.142742 -0.440225,0.140953 -0.154704,-0.0022 -0.326009,-0.05534 -0.453639,-0.168563 -0.127631,-0.113219 -0.21136,-0.286174 -0.330304,-0.407889 -0.118933,-0.121714 -0.273006,-0.192296 -0.418923,-0.21117 -0.145914,-0.01887 -0.283713,0.01415 -0.456005,0.04656 v -2.65e-4 c -0.172292,0.03242 -0.379081,0.06443 -0.603539,0.147793 -0.224453,0.08337 -0.466535,0.218273 -0.639824,0.336616 -0.173284,0.118344 -0.277806,0.220254 -0.389738,0.236156 -0.111926,0.01587 -0.231307,-0.0542 -0.376322,-0.150423 -0.145025,-0.09623 -0.315485,-0.21873 -0.356075,-0.425505 -0.0406,-0.206766 0.04875,-0.49785 0.240891,-0.762109 0.192159,-0.264255 0.486936,-0.501693 0.893075,-0.686115 0.406145,-0.184423 0.923528,-0.315757 1.387742,-0.31899 z m 0.09888,3.17073 c 0.06657,-0.0022 0.133274,4.29e-4 0.199599,0.0074 0.769601,0.07965 1.332969,0.729087 1.258355,1.450595 -0.07461,0.721561 -0.759033,1.241978 -1.528697,1.162364 -0.769718,-0.07965 -1.333131,-0.729254 -1.258354,-1.450854 0.06724,-0.649725 0.633539,-1.148013 1.329097,-1.169469 z"
         sodipodi:nodetypes="zcczcczccczccsssssssssssssssssssssscsscczssssssssssssssssssssssssssssssscsssccsssssssssccsscc" /></g></g></svg>
